<svg width="18" height="15" viewBox="0 0 18 15" fill="none" xmlns="http://www.w3.org/2000/svg">
<path d="M11.6 0.194197C13.4 -0.305803 14.8 0.494197 15.4 1.3942C16.1 1.1942 16.8 0.894197 17.5 0.694197C17.5 1.5942 16.9 2.1942 16.6 2.4942C17.3 2.5942 18 1.8942 18 1.8942C17.8 2.8942 16.9 3.6942 16.3 3.8942C16.1 10.6942 13 15.0942 5.7 14.9942C5.1 14.9942 5.8 14.9942 5.2 14.9942C4.8 14.9942 0.8 14.4942 0 13.0942C2.4 13.2942 4.1 12.6942 5 11.8942C4 11.5942 2.1 11.4942 1.8 8.9942C2.2 9.0942 2.4 9.1942 3.1 9.0942C1.8 8.2942 0.4 7.4942 0.5 5.2942C0.8 5.5942 1.6 5.7942 1.9 5.7942C1.1 5.5942 -0.2 2.4942 0.9 0.894197C2.8 2.7942 4.9 4.4942 8.5 4.6942C8.7 2.2942 9.7 0.794197 11.6 0.194197Z" fill="#83B3D3"/>
</svg>
