<svg width="20" height="14" viewBox="0 0 20 14" fill="none" xmlns="http://www.w3.org/2000/svg">
<path fill-rule="evenodd" clip-rule="evenodd" d="M17.8136 0.418176C18.6746 0.648666 19.3513 1.32532 19.5818 2.18637C19.9983 3.74547 20 7.00033 20 7.00033C20 7.00033 20 10.2552 19.5818 11.8143C19.3513 12.6753 18.6746 13.352 17.8136 13.5825C16.2545 14.0007 9.99996 14.0007 9.99996 14.0007C9.99996 14.0007 3.74547 14.0007 2.18636 13.5825C1.32532 13.352 0.648666 12.6753 0.418176 11.8143C0 10.2552 0 7.00033 0 7.00033C0 7.00033 0 3.74547 0.418176 2.18637C0.648666 1.32532 1.32532 0.648666 2.18636 0.418176C3.74547 0 9.99996 0 9.99996 0C9.99996 0 16.2545 0 17.8136 0.418176ZM13.194 7.00061L7.99808 10.0002V4.00092L13.194 7.00061Z" fill="#83B3D3"/>
</svg>
