<svg width="19" height="17" viewBox="0 0 19 17" fill="none" xmlns="http://www.w3.org/2000/svg"><path d="M9.44382 17c-.30086 0-.60171-.1-.80227-.4-5.41533-6.1-6.71902-7.5-7.01987-7.9C.91969 7.8.518555 6.6.518555 5.4c0-3 2.406815-5.4 5.515605-5.4 1.30369 0 2.5071.5 3.50994 1.3C10.5469.5 11.8506 0 13.054 0c3.0085 0 5.5156 2.4 5.5156 5.4 0 1.3-.5014 2.5-1.3036 3.4l-7.0199 7.9c-.2006.2-.40115.3-.80228.3ZM3.42679 7.5c.30085.4 3.50993 4 6.11731 6.9l6.2176-7c.5014-.5.702-1.2.702-2 0-1.8-1.5043-3.3-3.3094-3.3-1.0028 0-2.0057.5-2.7076 1.3-.3009.3-.60175.4-.9026.4-.30085 0-.6017-.2-.80227-.4-.70199-.8-1.70483-1.3-2.70767-1.3-1.8051 0-3.30936 1.5-3.30936 3.3-.10028.9.30085 1.6.70199 2.1-.10029 0-.10029 0 0 0Z" fill="#000"/></svg>