<svg width="44" height="66" fill="none" xmlns="http://www.w3.org/2000/svg"><path d="M20.44 41c-.3 0-.6-.1-.8-.4-5.41-6.1-6.72-7.5-7.02-7.9a5.4 5.4 0 0 1 4.41-8.7c1.3 0 2.51.5 3.51 1.3a5.47 5.47 0 0 1 9.03 4.1c0 1.3-.5 2.5-1.3 3.4l-7.02 7.9c-.2.2-.4.3-.8.3Zm-6.01-9.5c.3.4 3.5 4 6.11 6.9l6.22-7c.5-.5.7-1.2.7-2 0-1.8-1.5-3.3-3.3-3.3-1 0-2.01.5-2.71 1.3-.3.3-.6.4-.9.4-.3 0-.6-.2-.8-.4-.71-.8-1.71-1.3-2.72-1.3-1.8 0-3.3 1.5-3.3 3.3-.1.9.3 1.6.7 2.1-.1 0-.1 0 0 0Z" fill="#000"/><rect x="24" y="15" width="20" height="20" rx="10" fill="#7DB54F"/><path d="M30.13 26.76h1.4v-4.84l.1-.59-.4.47-1.1.79-.38-.51 2.2-1.7h.36v6.38h1.37v.74h-3.55v-.74Zm7.83-4.67c0 .35-.07.72-.2 1.09a10.88 10.88 0 0 1-1.21 2.21c-.26.35-.52.69-.78 1.01l-.49.43v.04l.64-.11h2.18v.74h-3.98v-.29a33.15 33.15 0 0 0 1.17-1.32 15.09 15.09 0 0 0 1.25-1.83c.18-.32.32-.64.43-.95.1-.31.16-.61.16-.89 0-.33-.1-.6-.28-.81-.19-.22-.47-.33-.85-.33-.25 0-.5.05-.74.16-.24.1-.45.22-.62.35l-.33-.57c.23-.2.51-.36.83-.47.32-.11.66-.17 1.03-.17.29 0 .54.04.76.13a1.5 1.5 0 0 1 .91.9c.08.2.12.43.12.68Z" fill="#fff"/></svg>