<svg width="20" height="19" viewBox="0 0 20 19" fill="none" xmlns="http://www.w3.org/2000/svg"><path d="m19.0257 17.05-3.7105-3.7c1.0028-1.3 1.7048-3 1.7048-4.90005 0-4.4-3.6102-7.999999-8.02268-7.999999C4.58483.449951.974609 4.14995.974609 8.54995.974609 12.95 4.58483 16.55 8.99732 16.55c1.80508 0 3.50988-.6 4.91388-1.7l3.7105 3.7 1.404-1.5Zm-10.02838-2.5c-3.30937 0-6.01703-2.7-6.01703-6.00005 0-3.3 2.70766-6 6.01703-6 3.30938 0 6.01698 2.7 6.01698 6 0 3.30005-2.7076 6.00005-6.01698 6.00005Z" fill="#000"/></svg>