<svg width="20" height="20" viewBox="0 0 20 20" fill="none" xmlns="http://www.w3.org/2000/svg"><rect width="20" height="20" rx="10" fill="#7DB54F"/><path d="M6.13089 11.76h1.4V6.92l.1-.59-.4.47-1.1.79-.38-.51 2.2-1.7h.36v6.38h1.37v.74h-3.55v-.74Zm7.82921-4.67c0 .35333-.0667.71667-.2 1.09-.1267.36667-.2967.73667-.51 1.11-.2067.37333-.44.74-.7 1.1-.26.3533-.52.69-.78 1.01l-.49.43v.04l.64-.11h2.18v.74h-3.98v-.29c.1467-.1533.3233-.3433.53-.57.2067-.2267.42-.4767.64-.75.2267-.28.4467-.5733.66-.88.22-.31333.4167-.63.59-.95.18-.32.3233-.63667.43-.95.1067-.31333.16-.61.16-.89 0-.32667-.0933-.59667-.28-.81-.1867-.22-.47-.33-.85-.33-.2533 0-.5.05333-.74.16-.24.1-.4467.21667-.62.35l-.33-.57c.2333-.2.51-.35667.83-.47.32-.11333.6633-.17 1.03-.17.2867 0 .54.04333.76.13.22.08.4067.19667.56.35.1533.15333.27.33667.35.55.08.20667.12.43333.12.68Z" fill="#fff"/></svg>